<?xml version="1.0" standalone="no"?>
<!DOCTYPE svg PUBLIC "-//W3C//DTD SVG 20010904//EN"
 "http://www.w3.org/TR/2001/REC-SVG-20010904/DTD/svg10.dtd">
<svg version="1.0" xmlns="http://www.w3.org/2000/svg"
 width="978.000000pt" height="1280.000000pt" viewBox="0 0 978.000000 1280.000000"
 preserveAspectRatio="xMidYMid meet">
<metadata>
Created by potrace 1.15, written by Peter Selinger 2001-2017
</metadata>
<g transform="translate(0.000000,1280.000000) scale(0.100000,-0.100000)"
fill="#ffffff" stroke="none">
<path d="M3623 12786 c-38 -18 -63 -62 -63 -114 0 -79 54 -212 131 -323 29
-40 46 -81 63 -150 30 -116 63 -311 76 -444 15 -154 22 -504 13 -659 l-8 -139
-270 -117 c-545 -236 -1040 -470 -1403 -663 -97 -52 -200 -102 -229 -111 -119
-39 -174 -133 -149 -253 16 -79 47 -129 160 -260 126 -147 206 -217 295 -261
70 -34 81 -37 165 -37 84 0 98 3 179 39 108 47 201 109 372 246 159 127 246
184 348 227 43 18 146 76 229 129 211 134 274 158 342 130 44 -18 61 -51 92
-179 57 -234 113 -378 192 -494 46 -68 150 -167 199 -191 18 -9 33 -19 33 -22
0 -21 -214 -176 -575 -415 -240 -159 -317 -205 -385 -229 l-85 -31 -386 -5
c-303 -4 -389 -8 -402 -18 -14 -12 -15 -29 -10 -110 10 -170 34 -211 244 -422
143 -144 167 -183 227 -370 108 -333 171 -676 206 -1125 16 -195 30 -589 41
-1120 9 -411 31 -548 112 -682 18 -31 33 -61 33 -67 0 -7 7 -34 16 -60 24 -71
108 -154 235 -235 l108 -68 -158 -76 c-173 -83 -342 -155 -466 -197 -134 -46
-383 -150 -735 -307 -584 -261 -747 -320 -1200 -428 -390 -93 -455 -111 -602
-159 -158 -53 -376 -115 -510 -146 l-98 -22 0 -49 c0 -185 110 -400 303 -591
87 -87 105 -100 160 -117 89 -27 189 -34 287 -21 119 16 184 32 440 112 288
90 287 90 530 144 343 76 388 91 660 219 714 336 1422 619 2195 877 628 209
918 285 1860 488 396 85 660 146 895 205 222 56 605 133 920 185 135 22 297
50 361 61 188 34 255 15 531 -149 184 -109 252 -135 342 -130 87 4 150 34 208
96 61 66 82 122 82 217 1 127 -12 148 -237 370 -214 212 -321 294 -492 379
-288 143 -491 151 -1055 41 -69 -13 -210 -38 -315 -54 -349 -56 -551 -100
-1170 -251 -416 -101 -554 -132 -785 -176 -102 -19 -261 -53 -355 -76 -188
-46 -307 -57 -391 -39 -30 7 -54 16 -54 20 0 21 506 286 766 401 222 99 625
260 649 260 4 0 72 -61 151 -136 l144 -136 196 68 196 69 -6 200 c-4 110 -11
398 -16 640 -30 1305 -85 2101 -195 2805 -84 541 -84 542 -126 650 -78 204
-190 303 -438 387 -111 38 -247 43 -364 13 -96 -23 -174 -55 -238 -96 -23 -14
-59 -32 -81 -40 -22 -8 -101 -48 -175 -90 -178 -100 -255 -135 -319 -141 -72
-8 -114 2 -154 35 -30 26 -34 35 -42 103 -33 298 -48 736 -31 912 6 68 6 69
57 106 97 72 242 153 536 301 318 159 371 179 615 234 274 61 310 75 355 137
82 114 51 297 -75 437 -38 42 -70 64 -149 102 -149 71 -201 84 -315 77 -123
-6 -217 -36 -432 -138 -92 -44 -173 -79 -180 -79 -8 0 -73 -32 -144 -71 -166
-91 -208 -109 -253 -109 -68 0 -76 16 -96 191 -37 321 -102 535 -212 700 -46
70 -171 195 -244 246 -123 84 -235 121 -400 134 -69 5 -152 11 -185 14 -41 4
-70 1 -92 -9z m2390 -3717 c9 -12 19 -31 21 -43 18 -94 50 -250 71 -341 29
-131 32 -207 7 -254 -35 -70 -90 -87 -202 -62 -76 17 -244 15 -335 -4 -206
-43 -672 -250 -919 -410 -192 -123 -546 -370 -611 -425 -89 -76 -143 -90 -182
-47 -31 33 -41 79 -48 212 l-7 120 30 45 c32 51 105 103 271 195 75 42 129 82
195 144 205 194 367 297 801 510 176 87 340 165 365 175 85 34 155 68 255 124
54 30 120 64 145 74 57 23 118 18 143 -13z m170 -1566 c7 -258 5 -267 -60
-279 -21 -4 -81 -1 -133 6 -184 25 -218 24 -326 -5 -277 -75 -521 -204 -954
-504 -297 -206 -440 -309 -492 -357 -72 -67 -132 -71 -168 -11 -24 39 -27 125
-6 165 8 15 66 77 128 138 555 543 1218 915 1876 1054 144 31 128 55 135 -207z
m-15 -985 c35 -125 45 -190 45 -293 0 -169 -29 -206 -202 -255 -209 -59 -473
-157 -737 -275 -227 -102 -658 -321 -800 -406 -140 -85 -233 -127 -286 -131
-32 -3 -32 -2 -46 57 -10 46 -11 70 -2 104 23 90 65 124 280 220 82 37 157 79
190 106 630 513 1019 761 1445 920 90 34 89 35 113 -47z"/>
<path d="M6697 2878 c-20 -5 -59 -30 -86 -54 -62 -55 -85 -112 -79 -188 6 -75
42 -120 126 -158 36 -16 99 -55 140 -85 184 -136 372 -240 520 -288 135 -44
193 -101 368 -365 62 -95 112 -157 168 -210 210 -199 353 -349 471 -495 318
-394 449 -522 595 -582 231 -95 536 130 557 412 8 98 -13 167 -91 309 -231
417 -543 737 -1116 1142 -333 235 -584 406 -645 440 -143 78 -273 104 -565
115 -129 5 -255 11 -280 13 -25 3 -62 0 -83 -6z"/>
<path d="M4458 2603 c-23 -27 -34 -52 -48 -113 -20 -84 -85 -251 -156 -400
-171 -357 -382 -649 -699 -966 -271 -271 -590 -525 -893 -709 -127 -77 -136
-180 -22 -256 44 -30 181 -77 295 -103 39 -9 111 -25 160 -37 111 -26 188 -22
365 21 69 16 138 30 154 30 86 0 519 297 786 539 255 231 251 227 491 581 72
106 117 206 182 400 77 230 97 320 97 434 0 149 -39 234 -169 369 -125 130
-239 191 -400 213 -133 17 -125 17 -143 -3z"/>
<path d="M1028 2073 c-25 -6 -22 -20 4 -26 25 -7 61 10 53 24 -6 9 -27 10 -57
2z"/>
</g>
</svg>
